<?xml version="1.0" encoding="UTF-8" standalone="no"?><svg xmlns="http://www.w3.org/2000/svg" xmlns:xlink="http://www.w3.org/1999/xlink" fill="#c4ae98" height="20.1" preserveAspectRatio="xMidYMid meet" version="1" viewBox="0.0 2.0 24.0 20.1" width="24" zoomAndPan="magnify"><g id="change1_1"><path d="M2.8,22H4c0-0.1,0-0.2,0-0.2v-0.5v-0.8v-13V6.7V6.2C4,6.1,4,6,4,6H2.8C1.2,6,0,7.2,0,8.7v10.5C0,20.8,1.2,22,2.8,22z" fill="inherit"/></g><g id="change1_2"><path d="M5.5,7.5v13v0.8v0.5c0,0.1,0,0.2,0,0.2h13.1c0-0.1,0-0.2,0-0.2v-0.5v-0.8v-13V6.7V6H17V4.8C17,3.2,15.8,2,14.2,2H9.8 C8.2,2,7,3.2,7,4.8V6H5.5c0,0.1,0,0.1,0,0.2v0.5V7.5z M8.5,4.8c0-0.7,0.6-1.2,1.2-1.2h4.5c0.7,0,1.2,0.6,1.2,1.2V6h-7V4.8z" fill="inherit"/></g><g id="change1_3"><path d="M21.2,6H20v0.8v0.8v13v0.8v0.5c0,0.1,0,0.2-0.1,0.2h1.3c1.5,0,2.8-1.2,2.8-2.8V8.7C24,7.2,22.8,6,21.2,6z" fill="inherit"/></g></svg>