<?xml version="1.0" encoding="utf-8" standalone="no"?><svg xmlns="http://www.w3.org/2000/svg" xmlns:xlink="http://www.w3.org/1999/xlink" enable-background="new 0 0 348.3 320.2" fill="#000000" id="Layer_1" version="1.1" viewBox="0 0 348.3 320.2" x="0px" xml:space="preserve" y="0px">
<g>
	<g>
		<g>
			<g id="change1_1"><rect fill="#ffffff" height="118.9" width="43.2" x="4" y="197.3"/></g>
			<g id="change2_1"><path d="M47.2,320.2H4c-2.2,0-4-1.8-4-4V197.3c0-2.2,1.8-4,4-4h43.2c2.2,0,4,1.8,4,4v118.9     C51.2,318.4,49.4,320.2,47.2,320.2z M8,312.2h35.2V201.3H8V312.2z" fill="#1b3c65"/></g>
		</g>
		<g>
			<g id="change1_2"><path d="M47.2,218.6l46.4-35.3h122.8c11.9,0,21.5,9.6,21.5,21.5v0c0,11.9-9.6,21.5-21.5,21.5h-74.2l11.3,3.6     c19.6,6.3,40,9.7,60.5,10.2l34.5,0.9l32.1-25.5c18.5-14.7,44.5-15.3,63.6-1.4l0,0l-86.3,80l-101.3,10.5L47.2,293.3V218.6z" fill="#ffffff"/></g>
			<g id="change2_2"><path d="M156.7,308.6c-0.1,0-0.3,0-0.4,0L46.8,297.3c-2-0.2-3.6-1.9-3.6-4v-74.7c0-1.2,0.6-2.4,1.6-3.2l46.4-35.3     c0.7-0.5,1.5-0.8,2.4-0.8h122.8c14,0,25.5,11.4,25.5,25.5s-11.4,25.5-25.5,25.5h-46.7c14.5,3.5,29.4,5.5,44.4,5.9l33.1,0.9     l31-24.6c19.8-15.8,48-16.4,68.5-1.5c1,0.7,1.6,1.8,1.6,3s-0.4,2.4-1.3,3.2l-86.3,80c-0.6,0.6-1.4,1-2.3,1l-101.3,10.5     C157,308.6,156.8,308.6,156.7,308.6z M51.2,289.7l105.5,10.9l99.6-10.4l81.6-75.6c-17.1-9.9-38.9-8.5-54.7,4l-32.1,25.5     c-0.7,0.6-1.7,0.9-2.6,0.9l-34.5-0.9c-20.9-0.6-41.7-4.1-61.6-10.4L141,230c-1.9-0.6-3-2.5-2.7-4.4s2-3.4,4-3.4h74.2     c9.6,0,17.5-7.8,17.5-17.5s-7.8-17.5-17.5-17.5H95l-43.8,33.3V289.7z" fill="#1b3c65"/></g>
		</g>
	</g>
	<g>
		<g>
			<g id="change3_1"><path d="M206.3,27.4c-21.6,0-32.1,18.2-32.1,18.2s-10.4-18.2-32.1-18.2c-21.6,0-32.9,18.4-32.9,36     c0,33.8,65,72.4,65,72.4s65-38.6,65-72.4C239.2,45.8,227.9,27.4,206.3,27.4z" fill="#82b7ca"/></g>
			<g id="change2_3"><path d="M174.2,139.7c-0.7,0-1.4-0.2-2-0.6c-0.7-0.4-16.7-10-33.1-23.9c-22.5-19.2-33.9-36.7-33.9-51.9     c0-19.4,12.9-40,36.9-40c16.5,0,27.1,9.4,32.1,15.4c5-6,15.6-15.4,32.1-15.4c24,0,36.9,20.6,36.9,40c0,15.2-11.4,32.7-33.9,51.9     c-16.3,13.9-32.4,23.5-33.1,23.9C175.6,139.5,174.9,139.7,174.2,139.7z M142.1,31.4c-14.4,0-28.9,11-28.9,32     c0,12.6,10.8,28.5,31.1,45.8c12.5,10.7,25.1,18.9,29.9,21.9c4.8-3,17.5-11.3,30-21.9c20.3-17.3,31-33.2,31-45.8     c0-15.9-9.9-32-28.9-32c-19,0-28.2,15.5-28.6,16.2c-0.7,1.2-2,2-3.5,2c0,0,0,0,0,0c-1.4,0-2.8-0.8-3.5-2     C170.3,46.9,161.1,31.4,142.1,31.4z" fill="#1b3c65"/></g>
		</g>
		<g>
			<g>
				<g>
					<g id="change2_4"><path d="M76.5,73.5H58.6c-1.7,0-3-1.3-3-3s1.3-3,3-3h17.9c1.7,0,3,1.3,3,3S78.2,73.5,76.5,73.5z" fill="#1b3c65"/></g>
				</g>
				<g>
					<g id="change2_5"><path d="M86.6,141.1c-0.8,0-1.5-0.3-2.1-0.9c-1.2-1.2-1.2-3.1,0-4.2l12.6-12.6c1.2-1.2,3.1-1.2,4.2,0       c1.2,1.2,1.2,3.1,0,4.2l-12.6,12.6C88.2,140.8,87.4,141.1,86.6,141.1z" fill="#1b3c65"/></g>
				</g>
				<g>
					<g id="change2_6"><path d="M99.3,18.6c-0.8,0-1.5-0.3-2.1-0.9L84.5,5.1c-1.2-1.2-1.2-3.1,0-4.2c1.2-1.2,3.1-1.2,4.2,0l12.6,12.6       c1.2,1.2,1.2,3.1,0,4.2C100.8,18.3,100,18.6,99.3,18.6z" fill="#1b3c65"/></g>
				</g>
			</g>
			<g>
				<g>
					<g id="change2_7"><path d="M289.7,73.5h-17.9c-1.7,0-3-1.3-3-3s1.3-3,3-3h17.9c1.7,0,3,1.3,3,3S291.4,73.5,289.7,73.5z" fill="#1b3c65"/></g>
				</g>
				<g>
					<g id="change2_8"><path d="M249.1,18.6c-0.8,0-1.5-0.3-2.1-0.9c-1.2-1.2-1.2-3.1,0-4.2l12.6-12.6c1.2-1.2,3.1-1.2,4.2,0       c1.2,1.2,1.2,3.1,0,4.2l-12.6,12.6C250.6,18.3,249.8,18.6,249.1,18.6z" fill="#1b3c65"/></g>
				</g>
				<g>
					<g id="change2_9"><path d="M261.7,141.1c-0.8,0-1.5-0.3-2.1-0.9L247,127.6c-1.2-1.2-1.2-3.1,0-4.2c1.2-1.2,3.1-1.2,4.2,0       l12.6,12.6c1.2,1.2,1.2,3.1,0,4.2C263.3,140.8,262.5,141.1,261.7,141.1z" fill="#1b3c65"/></g>
				</g>
			</g>
		</g>
	</g>
</g>
</svg>