<?xml version="1.0" encoding="UTF-8" standalone="no"?><svg xmlns="http://www.w3.org/2000/svg" xmlns:xlink="http://www.w3.org/1999/xlink" clip-rule="evenodd" fill="#6f73aa" fill-rule="evenodd" height="512" image-rendering="optimizeQuality" preserveAspectRatio="xMidYMid meet" shape-rendering="geometricPrecision" text-rendering="geometricPrecision" version="1" viewBox="1.0 1.0 510.0 510.0" width="512" zoomAndPan="magnify"><g><g><g id="change1_3"><path d="M369 511l-226 0c-78,0 -142,-64 -142,-142l0 -226c0,-78 64,-142 142,-142l226 0c78,0 142,64 142,142l0 226c0,78 -64,142 -142,142zm-226 -478c-60,0 -110,50 -110,110l0 226c0,60 50,110 110,110l226 0c60,0 110,-50 110,-110l0 -226c0,-60 -50,-110 -110,-110l-226 0z"/></g><g id="change1_1"><path d="M256 344c-48,0 -88,-40 -88,-88 0,-48 40,-88 88,-88 48,0 88,40 88,88 0,48 -40,88 -88,88zm0 -144c-31,0 -56,25 -56,56 0,31 25,56 56,56l0 0c31,0 56,-25 56,-56 0,-31 -25,-56 -56,-56z"/></g><g id="change1_4"><path d="M256 400c-79,0 -144,-65 -144,-144 0,-79 65,-144 144,-144 79,0 144,65 144,144 0,79 -65,144 -144,144zm0 -256c-62,0 -112,50 -112,112 0,62 50,112 112,112l0 0c62,0 112,-50 112,-112 0,-62 -50,-112 -112,-112z"/></g><g id="change1_2"><path d="M138 119l-35 0c-9,0 -16,-7 -16,-16 0,-9 7,-16 16,-16l35 0c9,0 16,7 16,16 0,9 -7,16 -16,16z"/></g></g></g></svg>