<?xml version="1.0" encoding="UTF-8" standalone="no"?><svg xmlns="http://www.w3.org/2000/svg" xmlns:xlink="http://www.w3.org/1999/xlink" fill="#000000" height="1652.9" preserveAspectRatio="xMidYMid meet" version="1" viewBox="0.0 -2.9 1885.8 1652.9" width="1885.8" zoomAndPan="magnify"><defs><clipPath id="a"><path d="M 872 0 L 1885.769531 0 L 1885.769531 1650 L 872 1650 Z M 872 0"/></clipPath></defs><g><g clip-path="url(#a)" id="change1_1"><path d="M 1372.234375 2.351562 C 1280.734375 9.28125 1190.160156 42.613281 1114.304688 95.425781 L 966.699219 515.105469 L 1077.015625 603.542969 L 872.140625 1035.171875 L 1050.746094 1150.75 L 942.792969 1639.839844 L 942.617188 1649.949219 C 942.617188 1649.949219 1885.761719 1153.300781 1885.761719 491.144531 C 1885.761719 259.105469 1711.808594 29.886719 1489.359375 3.707031 C 1475.441406 2.0625 1432.960938 -2.242188 1372.234375 2.351562" fill="#616295"/></g><g id="change2_1"><path d="M 942.707031 1639.820312 L 961.972656 1216.007812 L 743.476562 1081.308594 L 902.707031 646.921875 L 706.449219 521.460938 L 786.691406 106.410156 C 706.683594 46.382812 608.308594 8.058594 509.039062 2.023438 C 499.910156 1.476562 459.503906 -2.875 400.765625 3.1875 C 176.199219 26.378906 0 257.5625 0 491.121094 C 0 1153.269531 942.535156 1649.929688 942.535156 1649.929688 L 942.707031 1639.820312" fill="#f4804f"/></g><g id="change3_1"><path d="M 631.164062 400.691406 C 633.074219 403.410156 634.6875 406.308594 636.265625 409.21875 C 637.820312 412.140625 639.601562 414.949219 640.984375 417.949219 C 643.671875 423.988281 646.65625 429.921875 648.699219 436.210938 C 657.816406 460.941406 661.242188 488.148438 659.925781 514.820312 C 658.703125 538 653.363281 561.089844 643.0625 581.988281 C 641.132812 582.398438 639.214844 582.859375 637.308594 583.378906 C 637.550781 582.910156 637.800781 582.460938 638.046875 581.988281 C 666.476562 527.019531 654.519531 467.808594 652.421875 457.421875 C 646.183594 426.519531 632.296875 400.890625 616.089844 380.128906 C 621.585938 386.648438 626.71875 393.449219 631.164062 400.691406 Z M 743.570312 1081.378906 L 764.078125 1025.429688 C 720.316406 1004.320312 661.152344 979.796875 604.34375 952.539062 C 587.15625 934.859375 568.230469 916.5625 558.449219 895.238281 C 537.644531 849.863281 529.519531 801.261719 541.46875 757.09375 C 546.574219 755.429688 551.628906 753 556.59375 749.6875 C 563.515625 745.074219 568.046875 738.867188 572.3125 731.71875 C 608.960938 819.890625 747.03125 795.457031 755.320312 702.933594 C 763.457031 612.140625 706.773438 574.550781 652.949219 580.421875 C 656.820312 572.949219 660.105469 565.171875 662.839844 557.199219 C 667.421875 543.78125 670.101562 529.761719 671.460938 515.660156 C 674.21875 487.429688 671.054688 458.78125 661.941406 431.53125 C 659.921875 424.628906 656.742188 418.199219 653.867188 411.648438 C 652.394531 408.390625 650.523438 405.328125 648.859375 402.171875 C 647.179688 399.011719 645.457031 395.878906 643.441406 392.929688 C 636.039062 380.699219 626.9375 369.648438 617.355469 359.191406 C 607.648438 348.820312 596.96875 339.449219 585.746094 330.890625 C 574.550781 322.320312 562.679688 314.519531 550.597656 307.609375 C 526.015625 293.628906 499.308594 283.28125 471.640625 277.941406 C 444.023438 272.28125 415.664062 271.789062 387.976562 274.640625 C 374.121094 276.128906 360.398438 278.550781 346.949219 281.941406 C 345.945312 282.179688 344.945312 282.441406 343.941406 282.699219 C 322.28125 286.699219 306.042969 291.890625 297.859375 294.511719 C 273.191406 302.398438 190.113281 328.980469 182.867188 380.75 C 182.351562 384.441406 182.257812 388.109375 182.449219 391.71875 C 181.734375 395.761719 181.28125 399.871094 181.097656 404.011719 C 150.398438 467.488281 137.640625 542.570312 149.328125 567.621094 C 149.898438 568.839844 154.121094 579.160156 154.121094 586.78125 C 154.121094 593.589844 150.699219 598.609375 149.328125 601.160156 C 132.558594 632.300781 122.976562 646.671875 115.789062 658.652344 C 113.550781 662.382812 99.019531 685.003906 115.789062 692.191406 C 123.410156 695.457031 133.039062 695.066406 139.746094 701.773438 C 142.140625 704.171875 143.667969 711.21875 144.539062 716.148438 C 146.175781 725.421875 147.9375 733.320312 149.820312 740.542969 C 149.824219 740.546875 149.824219 740.554688 149.824219 740.5625 C 150.675781 743.808594 151.546875 746.914062 152.445312 749.945312 C 152.449219 749.96875 152.457031 749.992188 152.464844 750.011719 C 153.796875 754.511719 155.1875 758.84375 156.632812 763.207031 C 156.679688 763.351562 156.730469 763.5 156.777344 763.648438 C 157.21875 764.976562 157.664062 766.308594 158.117188 767.648438 C 158.308594 768.226562 158.511719 768.816406 158.707031 769.402344 C 158.84375 769.8125 158.984375 770.222656 159.121094 770.636719 C 159.828125 772.726562 160.539062 774.835938 161.269531 777.007812 C 164.964844 788.011719 168.96875 800.363281 173.285156 816.769531 C 174.953125 823.109375 175.289062 833.144531 182.867188 840.722656 C 188.222656 846.078125 195.761719 849.230469 206.824219 850.308594 C 236.648438 853.207031 265.246094 843.402344 284.277344 834.46875 C 302.679688 852.125 316.757812 872.429688 323.472656 889.507812 C 334.265625 916.964844 335.488281 936.722656 333.96875 952.542969 C 330.15625 953.902344 326.328125 955.285156 322.488281 956.691406 C 280.925781 971.898438 231.46875 990.714844 191.203125 1016.441406 C 466.671875 1399.199219 942.628906 1650 942.628906 1650 L 942.800781 1639.890625 L 962.0625 1216.078125 L 743.570312 1081.378906" fill="#fff3f3"/></g><g id="change3_2"><path d="M 1761.910156 578.402344 C 1759.277344 554.777344 1688.84375 477.316406 1688.84375 461.34375 C 1688.84375 445.355469 1698 419.792969 1699.589844 400.625 C 1701.191406 381.445312 1673.917969 262.792969 1597.335938 213.691406 C 1592.398438 210.519531 1587.300781 207.511719 1582.085938 204.640625 C 1605.644531 208.550781 1624.921875 216.253906 1626.503906 228.800781 C 1626.503906 228.800781 1627.402344 226.851562 1627.769531 223.464844 C 1628.417969 217.566406 1627.488281 207.273438 1617.53125 195.183594 C 1601.847656 176.125 1497.523438 118.035156 1401.144531 128.125 C 1304.765625 138.210938 1219.601562 146.058594 1179.261719 199.847656 C 1138.902344 253.636719 1151.242188 263.726562 1147.875 271.570312 C 1144.511719 279.417969 1133.308594 271.570312 1120.980469 292.859375 C 1108.652344 314.160156 1064.949219 381.402344 1115.375 493.464844 C 1165.808594 605.535156 1222.957031 599.933594 1224.082031 643.636719 C 1224.621094 664.496094 1233.636719 674.183594 1246.191406 675.421875 C 1241.851562 765.207031 1205.53125 820.308594 1174.1875 856.132812 C 1174.164062 856.148438 1174.15625 856.164062 1174.144531 856.179688 C 1123.082031 879.804688 1072.589844 925.40625 989.816406 1072.460938 C 984.324219 1082.21875 979.28125 1091.929688 974.636719 1101.582031 L 1050.710938 1150.800781 L 942.746094 1639.890625 L 942.574219 1650 C 942.574219 1650 1351.859375 1434.46875 1631.1875 1098.089844 C 1574.769531 1030.851562 1512.589844 978.808594 1473.378906 946.261719 C 1469.796875 908.816406 1469.515625 853.675781 1522.613281 778.214844 C 1564.910156 798.894531 1613.375 812.367188 1651.65625 812.367188 C 1683.527344 812.367188 1676.484375 782.398438 1685.78125 754.402344 C 1690.835938 739.167969 1695.542969 723.148438 1699.65625 707.515625 C 1699.664062 707.515625 1699.675781 707.519531 1699.6875 707.519531 C 1703.550781 692.394531 1707.089844 679.339844 1709.957031 663.757812 C 1713.648438 645.738281 1715.996094 630.375 1716.539062 620.355469 C 1716.796875 615.542969 1719.839844 611.359375 1724.363281 609.6875 C 1737.136719 604.964844 1764.148438 598.621094 1761.910156 578.402344" fill="#fff3f3"/></g></g></svg>