<?xml version="1.0" encoding="utf-8" standalone="no"?><svg xmlns="http://www.w3.org/2000/svg" xmlns:xlink="http://www.w3.org/1999/xlink" enable-background="new 0 0 409 247.7" fill="#000000" id="Layer_1" version="1.1" viewBox="0 0 409 247.7" x="0px" xml:space="preserve" y="0px">
<g>
	<g>
		<g id="change1_1"><path d="M343.7,21.2l-34.1,15l8.1,18.5l-17.8,7l-68.6-32.4l-34.1,9l-0.1-0.4H91.4l8.1-18.5l-34.1-15L4.5,143.3    l34.1,15l9.5-21.6h11.5l31.3,23l-1.2,1.2c-6.5,6.5-6.5,17.1,0,23.6s17.1,6.5,23.6,0l2.6-2.6c-6.5,6.5-6.5,17.1,0,23.6v0    c6.5,6.5,17.1,6.5,23.6,0l1.6-1.6c-5.6,5.6-5.6,14.6,0,20.2v0c5.6,5.6,14.6,5.6,20.2,0l5.3-5.3c-5.6,5.6-5.6,14.6,0,20.2v0    c5.6,5.6,14.6,5.6,20.2,0l4.2-4.2c0.3-0.3,0.5-0.5,0.7-0.8l1.5,1.1c9.7,7.2,23.2,6.3,32-2l6-5.7v0l1.6,1.3    c10,8.2,24.6,7.5,33.6-1.7l5.8-5.8l-2.4-0.8c0.3-0.1,0.7-0.2,1-0.3l0.1,0c6.3,5.2,15.6,4.5,21.2-1.5l0,0c5-5.4,5.4-13.3,1.6-19.1    l0.6-0.6l5.8,4.6c7.4,5.8,18.1,4.7,24.1-2.6c6.1-7.4,5.1-18.4-2.3-24.5l-1.8-1.5l29.3-21.6h11.5l9.5,21.6l34.1-15L343.7,21.2z" fill="#ffffff"/></g>
	</g>
	<g>
		
			<g id="change2_1"><rect fill="#fcae8d" height="151.5" transform="matrix(0.916 0.4013 -0.4013 0.916 37.021 -14.0147)" width="37.3" x="33.3" y="5.6"/></g>
	</g>
	<g>
		
			<g id="change2_2"><rect fill="#fcae8d" height="151.5" transform="matrix(-0.916 0.4013 -0.4013 -0.916 723.4192 44.663)" width="37.3" x="338.4" y="22.3"/></g>
	</g>
	<g>
		<g id="change3_1"><path d="M38.6,162.8c-0.6,0-1.2-0.1-1.8-0.4l-34.1-15c-2.3-1-3.3-3.7-2.3-5.9L61.2,2.7c0.5-1.1,1.4-2,2.5-2.4    c1.1-0.4,2.4-0.4,3.4,0.1l34.1,15c2.3,1,3.3,3.7,2.3,5.9L42.8,160.1c-0.5,1.1-1.4,2-2.5,2.4C39.7,162.7,39.2,162.8,38.6,162.8z     M10.4,141l25.9,11.3L93.5,21.8L67.6,10.4L10.4,141z" fill="#1b3c65"/></g>
	</g>
	<g>
		<g id="change3_2"><path d="M248.8,239c-6.6,0-13.3-2.2-18.8-6.8L187.5,197c-1.9-1.6-2.2-4.4-0.6-6.3c1.6-1.9,4.4-2.2,6.3-0.6    l42.5,35.1c8.2,6.8,20.1,6.2,27.6-1.4l5.8-5.8c1.7-1.8,4.6-1.8,6.4,0c1.8,1.7,1.8,4.6,0,6.4l-5.8,5.8    C263.9,236,256.4,239,248.8,239z" fill="#1b3c65"/></g>
	</g>
	<g>
		<g id="change3_3"><path d="M208.1,244.5c-6.1,0-12.2-1.9-17.5-5.8L58.2,141.1H48.1c-1.5,0-2.9-0.8-3.8-2s-1-2.9-0.4-4.3l43.2-98.7    c0.7-1.6,2.3-2.7,4.1-2.7h105.8c2.5,0,4.5,2,4.5,4.5s-2,4.5-4.5,4.5H94.3L55,132.1h4.7c1,0,1.9,0.3,2.7,0.9L196,231.5    c8,5.9,19,5.2,26.2-1.7l6-5.7c1.8-1.7,4.6-1.6,6.4,0.2c1.7,1.8,1.6,4.6-0.2,6.4l-6,5.7C222.8,241.8,215.5,244.5,208.1,244.5z" fill="#1b3c65"/></g>
	</g>
	<g>
		<g id="change3_4"><path d="M310.8,211.7c-4.7,0-9.5-1.5-13.5-4.7L227,151.7c-2-1.5-2.3-4.4-0.8-6.3c1.5-2,4.4-2.3,6.3-0.8l70.3,55.3    c5.5,4.3,13.4,3.5,17.9-1.9c2.2-2.6,3.2-6,2.9-9.4c-0.3-3.4-2-6.5-4.6-8.7L207.3,87.7c-1.9-1.6-2.2-4.4-0.6-6.3    c1.6-1.9,4.4-2.2,6.3-0.6l111.6,92.2c4.5,3.7,7.3,9,7.8,14.8c0.6,5.8-1.2,11.5-4.9,16C323.3,209,317.1,211.7,310.8,211.7z" fill="#1b3c65"/></g>
	</g>
	<g>
		<g id="change3_5"><path d="M280.7,228c-4.5,0-9-1.5-12.6-4.5L207.3,174c-1.9-1.6-2.2-4.4-0.6-6.3c1.6-1.9,4.4-2.2,6.3-0.6l60.7,49.5    c4.5,3.7,11.1,3.2,15.1-1c2.1-2.3,3.2-5.3,2.9-8.4c-0.2-3.1-1.7-5.9-4.2-7.8l-16.1-12.6c-2-1.5-2.3-4.4-0.8-6.3s4.4-2.3,6.3-0.8    l16.1,12.6c4.4,3.5,7.2,8.6,7.6,14.2c0.4,5.6-1.5,11.1-5.3,15.2C291.5,225.8,286.1,228,280.7,228z" fill="#1b3c65"/></g>
	</g>
	<g>
		<g id="change3_6"><path d="M370.4,179.5c-0.6,0-1.1-0.1-1.6-0.3c-1.1-0.4-2-1.3-2.5-2.4L305.4,38c-0.5-1.1-0.5-2.3-0.1-3.4    s1.3-2,2.4-2.5l34.1-15c2.3-1,4.9,0,5.9,2.3l60.8,138.8c1,2.3,0,4.9-2.3,5.9l-34.1,15C371.6,179.3,371,179.5,370.4,179.5z     M315.5,38.5L372.7,169l25.9-11.3L341.4,27.1L315.5,38.5z" fill="#1b3c65"/></g>
	</g>
	<g>
		<g id="change3_7"><path d="M320.1,179.4c-1.4,0-2.7-0.6-3.6-1.8c-1.5-2-1-4.8,1-6.3l29.3-21.6c0.8-0.6,1.7-0.9,2.7-0.9h4.7    l-38.7-88.4l-13.7,5.4c-1.2,0.5-2.5,0.4-3.6-0.1L230.9,34l-58.5,15.5l-36,47.4c12.3,6.7,27.6,5.7,38.9-2.8L193.5,79    c1.3-1.1,3.1-1.3,4.6-0.7c0.5,0.2,12.1,4.7,26.4-3.3c2.2-1.2,4.9-0.5,6.1,1.7c1.2,2.2,0.5,4.9-1.7,6.1c-14,7.9-26.3,6-31.6,4.6    L181,101.1c-0.1,0-0.1,0.1-0.2,0.1c-15.1,11.4-35.9,12.1-51.8,1.8l-1.7-1.1c-1-0.7-1.8-1.8-2-3c-0.2-1.2,0.1-2.5,0.9-3.5l40-52.5    c0.6-0.8,1.5-1.4,2.4-1.6l61.5-16.3c1-0.3,2.1-0.2,3.1,0.3L300,56.8l16-6.3c2.3-0.9,4.8,0.2,5.8,2.4l43.2,98.7    c0.6,1.4,0.5,3-0.4,4.3s-2.2,2-3.8,2h-10.1l-28.1,20.7C321.9,179.1,321,179.4,320.1,179.4z" fill="#1b3c65"/></g>
	</g>
	<g>
		<g>
			<g id="change1_2"><path d="M130,167.9l-16.6,16.6c-6.5,6.5-17.1,6.5-23.6,0l0,0c-6.5-6.5-6.5-17.1,0-23.6l16.6-16.6     c6.5-6.5,17.1-6.5,23.6,0l0,0C136.5,150.8,136.5,161.4,130,167.9z" fill="#ffffff"/></g>
			<g id="change3_8"><path d="M101.6,193.9c-5.4,0-10.9-2.1-15-6.2c-4-4-6.2-9.3-6.2-15c0-5.7,2.2-11,6.2-15l16.6-16.6     c8.3-8.3,21.7-8.3,30,0c4,4,6.2,9.3,6.2,15c0,5.7-2.2,11-6.2,15h0l-16.6,16.6C112.4,191.8,107,193.9,101.6,193.9z M118.1,143.9     c-3.1,0-6.3,1.2-8.6,3.6L92.9,164c-2.3,2.3-3.6,5.4-3.6,8.6c0,3.3,1.3,6.3,3.6,8.6c4.8,4.8,12.5,4.8,17.3,0l16.6-16.6     c0,0,0,0,0,0c2.3-2.3,3.6-5.4,3.6-8.6c0-3.3-1.3-6.3-3.6-8.6C124.4,145.1,121.3,143.9,118.1,143.9z" fill="#1b3c65"/></g>
		</g>
		<g>
			<g id="change1_3"><path d="M151.7,193.5l-12.1,12.1c-6.5,6.5-17.1,6.5-23.6,0l0,0c-6.5-6.5-6.5-17.1,0-23.6l12.1-12.1     c6.5-6.5,17.1-6.5,23.6,0l0,0C158.3,176.3,158.3,186.9,151.7,193.5z" fill="#ffffff"/></g>
			<g id="change3_9"><path d="M127.8,215c-5.7,0-11-2.2-15-6.2c-4-4-6.2-9.3-6.2-15c0-5.7,2.2-11,6.2-15l12.1-12.1c4-4,9.3-6.2,15-6.2     s11,2.2,15,6.2c4,4,6.2,9.3,6.2,15c0,5.7-2.2,11-6.2,15l0,0l-12.1,12.1C138.8,212.8,133.5,215,127.8,215z M139.9,169.4     c-3.3,0-6.3,1.3-8.6,3.6l-12.1,12.1c-2.3,2.3-3.6,5.4-3.6,8.6c0,3.3,1.3,6.3,3.6,8.6c2.3,2.3,5.4,3.6,8.6,3.6     c3.3,0,6.3-1.3,8.6-3.6l12.1-12.1c2.3-2.3,3.6-5.4,3.6-8.6c0-3.3-1.3-6.3-3.6-8.6C146.2,170.7,143.2,169.4,139.9,169.4z      M151.7,193.5L151.7,193.5L151.7,193.5z" fill="#1b3c65"/></g>
		</g>
		<g>
			<g id="change1_4"><path d="M175.5,210l-14.1,14.1c-5.6,5.6-14.6,5.6-20.2,0l0,0c-5.6-5.6-5.6-14.6,0-20.2l14.1-14.1     c5.6-5.6,14.6-5.6,20.2,0l0,0C181.1,195.4,181.1,204.5,175.5,210z" fill="#ffffff"/></g>
			<g id="change3_10"><path d="M151.3,232.8c-5,0-9.7-2-13.3-5.5c-3.5-3.5-5.5-8.3-5.5-13.3c0-5,2-9.7,5.5-13.3l14.1-14.1     c7.3-7.3,19.2-7.3,26.5,0c3.5,3.5,5.5,8.3,5.5,13.3c0,5-2,9.7-5.5,13.3h0l-14.1,14.1C161,230.9,156.3,232.8,151.3,232.8z      M165.4,190.2c-2.5,0-5,1-6.9,2.9l-14.1,14.1c-1.8,1.8-2.9,4.3-2.9,6.9c0,2.6,1,5.1,2.9,6.9c1.8,1.8,4.3,2.9,6.9,2.9     s5.1-1,6.9-2.9l14.1-14.1h0c1.8-1.8,2.9-4.3,2.9-6.9c0-2.6-1-5.1-2.9-6.9C170.4,191.1,167.9,190.2,165.4,190.2z" fill="#1b3c65"/></g>
		</g>
		<g>
			<g id="change1_5"><path d="M191.1,234.8l-4.2,4.2c-5.6,5.6-14.6,5.6-20.2,0l0,0c-5.6-5.6-5.6-14.6,0-20.2l4.2-4.2     c5.6-5.6,14.6-5.6,20.2,0l0,0C196.7,220.2,196.7,229.3,191.1,234.8z" fill="#ffffff"/></g>
			<g id="change3_11"><path d="M176.8,247.7c-5,0-9.7-2-13.3-5.5c-7.3-7.3-7.3-19.2,0-26.5l4.2-4.2c7.3-7.3,19.2-7.3,26.5,0     c3.5,3.5,5.5,8.3,5.5,13.3c0,5-2,9.7-5.5,13.3h0l-4.2,4.2C186.5,245.8,181.8,247.7,176.8,247.7z M181,215c-2.5,0-5,1-6.9,2.9     l-4.2,4.2c-3.8,3.8-3.8,10,0,13.8c1.8,1.8,4.3,2.9,6.9,2.9s5.1-1,6.9-2.9l4.2-4.2c0,0,0,0,0,0c1.8-1.8,2.9-4.3,2.9-6.9     c0-2.6-1-5.1-2.9-6.9C186,215.9,183.5,215,181,215z" fill="#1b3c65"/></g>
		</g>
	</g>
</g>
</svg>