<?xml version="1.0" encoding="UTF-8" standalone="no"?><svg xmlns="http://www.w3.org/2000/svg" xmlns:xlink="http://www.w3.org/1999/xlink" fill="#e8e3de" height="33" preserveAspectRatio="xMidYMid meet" version="1" viewBox="33.5 14.0 33.0 33.0" width="33" zoomAndPan="magnify"><g id="change1_1"><circle cx="50" cy="30.5" r="16.5"/></g><g><g><g id="change2_1"><path d="M55.2,40.1c0.2,0.4,0,0.8-0.4,1c-1.7,0.7-3.5,1-5.6,1c-5.8,0-10.8-3.8-10.8-9.8c0-6.5,5.1-12.1,13-12.1 c6.2,0,10.3,3.9,10.3,9.1c0,4.7-3,7.5-6.3,7.5c-1.4,0-2.7-0.8-2.6-2.8h-0.1c-1.2,1.8-2.9,2.8-5,2.8c-2.1,0-3.8-1.5-3.8-3.9 c0-3.9,3.5-7.4,8.4-7.4c0.9,0,1.7,0.1,2.4,0.2c0.8,0.2,1.3,1,1.2,1.8l-0.9,4.3c-0.5,2.4-0.1,3.5,1.1,3.5c1.8,0,3.8-2.1,3.8-5.7 c0-4.5-3.1-7.8-8.6-7.8c-5.8,0-10.7,4.1-10.7,10.4c0,5.2,3.9,8.5,9.1,8.5c1.7,0,3.4-0.3,4.7-0.8C54.6,39.6,55,39.8,55.2,40.1 L55.2,40.1z M53.2,28.8c0.2-0.9-0.5-1.8-1.4-1.8c0,0,0,0,0,0c-3.1,0-5.7,2.6-5.7,5.6c0,1.4,0.8,2.4,2.3,2.4 c2.1,0,3.9-2.3,4.3-4.3L53.2,28.8z" fill="#fcae8d"/></g></g></g></svg>