<?xml version="1.0" encoding="utf-8" standalone="no"?><svg xmlns="http://www.w3.org/2000/svg" xmlns:xlink="http://www.w3.org/1999/xlink" enable-background="new 0 0 348 338.3" fill="#000000" id="Layer_1" version="1.1" viewBox="0 0 348 338.3" x="0px" xml:space="preserve" y="0px">
<g>
	<g>
		<g>
			<g id="change1_1"><path d="M125.4,278.7l0.1,6.3c0.4,27.6,23.1,49.7,50.7,49.3h0c27.6-0.4,49.7-23.1,49.3-50.7l-0.1-5.8     c0-1.5,0-2.9,0.2-4.4l-100.4,1.4C125.3,276.1,125.4,277.4,125.4,278.7z" fill="#f4804f"/></g>
		</g>
		<g>
			<g id="change2_1"><path d="M238.9,246.4c20-18.1,32.5-44.3,32.1-73.4c-0.7-54-45.5-97.1-99.7-95.6c-52.6,1.5-94.8,45.3-94.3,97.9     c0.3,29.1,13.3,55,33.8,72.6c8,6.9,13.2,16.5,14.4,27l100.4-1.4C226.5,263.1,231.2,253.4,238.9,246.4z" fill="#ffffff"/></g>
		</g>
		<g>
			<g>
				<g id="change3_1"><path d="M176.2,338.3c-29.8,0.4-54.3-23.5-54.7-53.3l-0.1-6.3c-0.1-10.6-5-20.7-13.3-27.9      c-22.1-19-34.9-46.5-35.2-75.6c-0.6-54.7,43.5-100.5,98.2-102c27.2-0.7,53.1,9.2,72.7,28.1c19.7,18.9,30.7,44.3,31.1,71.5      c0.4,29.1-11.8,56.9-33.4,76.4c-7.9,7.1-12.3,17.5-12.2,28.4l0.1,5.8C229.9,313.4,206,337.9,176.2,338.3z M172.7,81.4      c-0.4,0-0.9,0-1.3,0C121,82.8,80.5,124.9,81,175.3c0.3,26.8,12.1,52.1,32.4,69.6c10,8.6,15.9,20.9,16,33.8l0.1,6.3      c0.3,25.4,21.3,45.7,46.6,45.4s45.7-21.3,45.4-46.6l-0.1-5.8c-0.2-13.2,5.2-25.8,14.8-34.5c19.9-17.9,31.1-43.6,30.7-70.4      c-0.3-25.1-10.5-48.5-28.6-65.8C220.6,90.2,197.3,81,172.7,81.4z" fill="#1b3c65"/></g>
			</g>
			<g>
				<g>
					<g id="change3_2"><path d="M245.4,277.2l-140,1.9c-2.2,0-4-1.7-4.1-3.9c0-2.2,1.7-4,3.9-4.1l140-1.9c2.2,0,4,1.7,4.1,3.9       S247.6,277.2,245.4,277.2z" fill="#1b3c65"/></g>
				</g>
				<g>
					<g>
						<g id="change3_3"><path d="M223.7,296.9l-95,1.3c-1.7,0-3-1.3-3-3s1.3-3,3-3l95-1.3c1.7,0,3,1.3,3,3        C226.7,295.6,225.3,296.9,223.7,296.9z" fill="#1b3c65"/></g>
					</g>
					<g>
						<g id="change3_4"><path d="M216,317.5l-79,1.1c-1.7,0-3-1.3-3-3c0-1.7,1.3-3,3-3l79-1.1c1.7,0,3,1.3,3,3        C218.9,316.1,217.6,317.5,216,317.5z" fill="#1b3c65"/></g>
					</g>
				</g>
				<g>
					<g id="change3_5"><path d="M154.2,278.5c-2.2,0-4-1.7-4.1-3.9l-0.6-47.3c0-1.1,0.4-2.1,1.1-2.8l36-37l-33.7,0.5       c-1.6,0-3.1-0.9-3.7-2.4c-0.6-1.5-0.3-3.2,0.8-4.4l43.1-44.3c1.5-1.6,4.1-1.6,5.7-0.1c1.6,1.5,1.6,4.1,0.1,5.7l-36.4,37.4       l33.7-0.5c1.6,0,3.1,0.9,3.7,2.4c0.6,1.5,0.3,3.2-0.8,4.4l-41.6,42.7l0.6,45.6C158.2,276.6,156.4,278.4,154.2,278.5z" fill="#1b3c65"/></g>
				</g>
				<g>
					<g id="change3_6"><path d="M187.9,278c-2.2,0-4-1.7-4.1-3.9l-0.7-48.3c0-2.2,1.7-4,3.9-4.1c2.2,0,4,1.7,4.1,3.9l0.7,48.3       C191.9,276.1,190.1,278,187.9,278z" fill="#1b3c65"/></g>
				</g>
			</g>
		</g>
	</g>
	<g>
		<g>
			<g>
				<g id="change3_7"><path d="M345,174.6l-32,0.4c-1.7,0-3-1.3-3-3c0-1.7,1.3-3,3-3l32-0.4c1.7,0,3,1.3,3,3      C348,173.3,346.7,174.6,345,174.6z" fill="#1b3c65"/></g>
			</g>
			<g>
				<g id="change3_8"><path d="M35,178.9l-32,0.4c-1.7,0-3-1.3-3-3s1.3-3,3-3l32-0.4c1.7,0,3,1.3,3,3C38,177.5,36.7,178.9,35,178.9z" fill="#1b3c65"/></g>
			</g>
		</g>
		<g>
			<g>
				<g id="change3_9"><path d="M172.1,38c-1.7,0-3-1.3-3-3l-0.4-32c0-1.7,1.3-3,3-3c1.7,0,3,1.3,3,3l0.4,32      C175.1,36.6,173.8,38,172.1,38z" fill="#1b3c65"/></g>
			</g>
		</g>
		<g>
			<g>
				<g id="change3_10"><path d="M54.8,299.5c-0.8,0-1.5-0.3-2.1-0.8c-1.2-1.2-1.2-3.1-0.1-4.2l22.3-22.9c1.2-1.2,3.1-1.2,4.2-0.1      c1.2,1.2,1.2,3.1,0.1,4.2l-22.3,22.9C56.3,299.2,55.5,299.5,54.8,299.5z" fill="#1b3c65"/></g>
			</g>
			<g>
				<g id="change3_11"><path d="M271,77.4c-0.8,0-1.5-0.3-2.1-0.8c-1.2-1.2-1.2-3.1-0.1-4.2l22.3-22.9c1.2-1.2,3.1-1.2,4.2-0.1      c1.2,1.2,1.2,3.1,0.1,4.2l-22.3,22.9C272.5,77,271.7,77.3,271,77.4z" fill="#1b3c65"/></g>
			</g>
		</g>
		<g>
			<g>
				<g id="change3_12"><path d="M74.4,80.1c-0.8,0-1.5-0.3-2.1-0.8L49.3,56.9c-1.2-1.2-1.2-3.1-0.1-4.2c1.2-1.2,3.1-1.2,4.2-0.1      l22.9,22.3c1.2,1.2,1.2,3.1,0.1,4.2C75.9,79.7,75.2,80,74.4,80.1z" fill="#1b3c65"/></g>
			</g>
			<g>
				<g id="change3_13"><path d="M296.6,296.2c-0.8,0-1.5-0.3-2.1-0.8l-22.9-22.3c-1.2-1.2-1.2-3.1-0.1-4.2c1.2-1.2,3.1-1.2,4.2-0.1      l22.9,22.3c1.2,1.2,1.2,3.1,0.1,4.2C298.1,295.9,297.4,296.2,296.6,296.2z" fill="#1b3c65"/></g>
			</g>
		</g>
	</g>
</g>
</svg>